@startuml

[*] --> mine
mine : 1. initially each truck is already at a mining site, so we begin by mining
drive_to_station : 2. drive from mine site to unloading station
enqueue : 3. storage station queue (ephemeral, meta queue, ie. its a single parent queue into storage station's children queues)
wait_for_unload_ok : 4. the storage station will eventually enqueue and dequeue this truck, then invoke unload upon it, so wait until that's done
drive_to_mine : 5. drive from unloading station to mine site

mine --> drive_to_station
drive_to_station --> enqueue
enqueue --> wait_for_unload_ok
wait_for_unload_ok --> drive_to_mine
drive_to_mine --> mine : 🚦if the simulation duration is acquired, then exit 🛑, otherwise loop ✅
@enduml